<svg xmlns="http://www.w3.org/2000/svg" width="310" height="90" viewBox="0 0 310 90" fill="none"><path d="M50.8362 35.4173C50.8361 33.1847 50.3511 30.9788 49.4148 28.952C48.4785 26.9253 47.1133 25.1261 45.4134 23.6788C43.7136 22.2315 41.7197 21.1706 39.5695 20.5694C37.4194 19.9683 35.1645 19.8413 32.9604 20.1971C30.7564 20.553 28.656 21.3833 26.8043 22.6306C24.9527 23.8778 23.394 25.5124 22.236 27.4211C21.0781 29.3299 20.3485 31.4674 20.0976 33.6858C19.8468 35.9042 20.0807 38.1506 20.7833 40.2698C20.8523 40.4754 20.9254 40.6791 21.0024 40.8809H21.0318C21.773 42.6207 22.6296 44.3089 23.596 45.9342C25.7322 49.3301 27.0396 53.1809 27.4126 57.1755L27.4222 57.2616C27.8604 61.1962 29.6907 61.5109 30.3743 61.5109V61.5292H32.1695C32.3512 61.5292 32.4803 61.5292 32.5042 61.5292H41.72C41.7992 61.5292 41.8753 61.5602 41.9318 61.6156C41.9885 61.6711 42.0211 61.7464 42.0228 61.8256L42.0323 62.2017C42.0334 62.2401 42.0267 62.2785 42.0127 62.3142C41.9988 62.3501 41.9777 62.3828 41.951 62.4102C41.9241 62.4378 41.8921 62.4597 41.8566 62.4747C41.8212 62.4897 41.7832 62.4973 41.7447 62.4973H30.603C29.9733 62.4973 29.3693 62.7475 28.924 63.1928C28.4787 63.6381 28.2286 64.242 28.2286 64.8718V65.8399C28.209 66.1968 28.2645 66.5538 28.3915 66.8879C28.5184 67.222 28.714 67.5257 28.9656 67.7796C29.2172 68.0334 29.5192 68.2317 29.8522 68.3616C30.1851 68.4916 30.5416 68.5502 30.8986 68.5339L37.1655 68.5801C40.2666 68.5841 42.0124 69.1697 43.1319 70V68.9323C43.1319 67.3291 41.3208 66.2455 38.0826 66.2455L31.211 66.1785C30.5249 66.1785 30.6771 65.7347 30.6771 65.6064V65.1841C30.6771 65.1011 30.7101 65.0214 30.7688 64.9627C30.8276 64.904 30.9072 64.871 30.9903 64.871H42.0977C42.7291 64.871 43.335 64.6211 43.7829 64.176C44.2308 63.7308 44.4842 63.1264 44.4881 62.4949L44.4936 61.624C44.4956 61.3004 44.4336 60.9795 44.3112 60.6799C44.1886 60.3803 44.0081 60.1079 43.7799 59.8783C43.5518 59.6488 43.2805 59.4665 42.9816 59.3422C42.6828 59.2179 42.3624 59.154 42.0387 59.154H31.8851C31.1257 59.1428 30.6668 59.0655 30.3712 58.6233C30.1125 58.1239 29.968 57.5733 29.948 57.0114C29.9401 56.9412 29.9337 56.8855 29.9281 56.8464C29.109 51.2887 25.976 45.0641 24.5816 42.5917C24.2629 42.0283 24.0191 41.4315 23.745 40.8809C23.1382 39.6422 22.709 38.324 22.4701 36.9655C22.241 35.0447 22.4421 33.0971 23.0587 31.2637C23.6753 29.4303 24.6921 27.757 26.0353 26.3651C27.3785 24.9732 29.0145 23.8975 30.8248 23.216C32.6351 22.5345 34.5744 22.2642 36.502 22.4248C38.4297 22.5853 40.2975 23.1727 41.9701 24.1443C43.6427 25.1159 45.0782 26.4475 46.1727 28.0424C47.2671 29.6374 47.993 31.4558 48.2978 33.366C48.6027 35.2762 48.4787 37.2302 47.935 39.0865L47.888 39.2459L47.7055 39.8833C47.7055 39.8889 47.5247 40.4021 47.3207 40.8801C47.0888 41.4172 46.7685 42.1032 46.657 42.2857C44.9279 45.1271 42.3542 49.5079 41.6897 53.468C41.6833 53.5054 41.6754 53.558 41.6682 53.6234C41.6548 53.9368 41.5618 54.2416 41.3981 54.5091C41.2342 54.7767 41.005 54.998 40.7319 55.1524C40.3977 55.3169 40.0325 55.4092 39.6602 55.4233H37.626C37.4179 55.4233 37.2119 55.3823 37.0197 55.3027C36.8274 55.223 36.6527 55.1063 36.5056 54.9591C36.3585 54.812 36.2419 54.6372 36.1623 54.4449C36.0828 54.2527 36.0419 54.0465 36.042 53.8385C36.042 53.8385 36.0165 50.7907 36.0037 50.7923V50.4402V50.1135V43.0777H35.991V42.9869C35.991 42.9253 35.9789 42.8643 35.9552 42.8074C35.9316 42.7505 35.897 42.6988 35.8535 42.6553C35.8099 42.6118 35.7582 42.5773 35.7012 42.5538C35.6443 42.5303 35.5833 42.5183 35.5217 42.5184H31.6946C31.6125 42.5184 31.5318 42.4969 31.4606 42.456C31.3894 42.4151 31.3302 42.3561 31.289 42.2851C31.2477 42.2141 31.2259 42.1335 31.2256 42.0514C31.2253 41.9692 31.2467 41.8885 31.2875 41.8172L31.6628 40.9758L33.1034 37.7503L36.0372 31.1823C36.0927 31.0859 36.1806 31.0123 36.2853 30.9747C36.3901 30.9373 36.5048 30.9382 36.6088 30.9775C36.7129 31.0168 36.7996 31.0919 36.8534 31.1892C36.9072 31.2866 36.9246 31.4 36.9025 31.509L35.2292 37.9121C35.2155 37.9803 35.217 38.0506 35.2336 38.1181C35.2504 38.1857 35.2818 38.2486 35.3258 38.3025C35.3698 38.3564 35.4252 38.3999 35.488 38.4297C35.5508 38.4596 35.6194 38.4752 35.689 38.4754H40.1256C40.1974 38.4754 40.2683 38.4919 40.3327 38.5237C40.3972 38.5555 40.4535 38.6016 40.4972 38.6587C40.5409 38.7156 40.5711 38.7819 40.5851 38.8524C40.5991 38.9229 40.5967 38.9956 40.5782 39.065L37.9439 48.9732C37.922 49.0569 37.926 49.1452 37.9554 49.2265C37.9847 49.3078 38.0381 49.3783 38.1084 49.4287C38.1787 49.479 38.2626 49.5069 38.349 49.5085C38.4355 49.51 38.5204 49.4854 38.5925 49.4378L38.7766 49.3127C41.2714 47.5661 43.4777 44.0482 43.1407 40.3949C42.4953 33.403 37.4308 30.5257 38.5893 28.2588C38.9758 27.5051 38.2985 26.2844 36.8882 27.4134C32.4612 30.9528 28.8859 34.3982 28.2357 39.8116C28.1927 40.1726 28.1688 40.5288 28.156 40.8801C28.0554 43.3104 28.8418 45.6943 30.3688 47.5876C31.261 48.6712 32.3861 49.5397 33.6603 50.1286V54.4313C33.6604 54.8736 33.7477 55.3114 33.917 55.7198C34.0863 56.1284 34.3344 56.4995 34.6472 56.8121C34.9599 57.1247 35.3312 57.3726 35.7398 57.5418C36.1484 57.7109 36.5862 57.7979 37.0284 57.7978H37.5065C37.5177 57.7978 37.5439 57.7978 37.575 57.7978H40.1407C42.1614 57.7978 43.5821 56.4855 43.9112 53.9102L43.9191 53.8449C44.5566 50.0593 47.284 45.5988 48.9111 42.9343L49.1222 42.5885C49.4343 42.0468 49.6893 41.4743 49.8832 40.8801H49.892L49.9422 40.7072C50.2083 39.9009 50.3549 39.2332 50.3653 39.2021C50.6797 37.9643 50.8386 36.692 50.8386 35.4149" fill="white"></path><path d="M62.8389 30.4721C62.8389 24.1878 67.1849 20.0088 73.6901 20.0088C75.1947 19.9472 76.6949 20.2093 78.0894 20.7775C79.484 21.3458 80.7403 22.2068 81.7732 23.3025L79.3092 25.794C78.6379 24.9717 77.787 24.3145 76.8219 23.8729C75.8567 23.4314 74.8031 23.2172 73.742 23.2468C69.6179 23.2468 66.8783 26.1536 66.8783 30.4995C66.8783 34.9011 69.6735 37.8069 73.7986 37.8069C74.9929 37.8454 76.1758 37.5658 77.2264 36.9967C78.2769 36.4275 79.1573 35.5893 79.7773 34.568L82.4066 36.9208C81.4045 38.2655 80.0885 39.3445 78.5733 40.0636C77.0583 40.7826 75.3902 41.1199 73.7147 41.0459C67.2122 41.0459 62.8389 36.8122 62.8389 30.4721ZM98.2963 37.5304V40.7693H85.3425V20.2854H89.2449V37.5341L98.2963 37.5304ZM115.291 37.5304V40.7693H101.146V20.2854H115.069V23.5243H105.049V28.7838H114.183V31.9944H105.049V37.5304H115.291ZM131.901 36.6999H122.458L120.798 40.7693H116.617L125.369 20.2854H128.995L137.744 40.7693H133.563L131.901 36.6999ZM130.601 33.461L127.196 25.1296L123.791 33.461H130.601ZM140.121 20.2854H142.558L155.457 34.1573L155.373 20.2854H159.276V40.7693H156.867L143.969 26.8974L144.023 40.7693H140.12L140.121 20.2854ZM185.129 37.5341V40.773H170.983V20.2854H184.907V23.5243H174.883V28.7838H184.018V31.9944H174.883V37.5304L185.129 37.5341ZM188.975 20.2854H191.411L204.31 34.1573L204.22 20.2854H208.125V40.7693H205.715L192.813 26.9019L192.867 40.7739H188.97L188.975 20.2854ZM227.145 37.5341V40.773H212.999V20.2854H226.923V23.5243H216.899V28.7838H226.032V31.9944H216.899V37.5304L227.145 37.5341ZM239.073 33.2447H234.885V40.7739H230.982V20.2854H239.561C243.879 20.2854 246.73 22.8873 246.73 26.765C246.762 27.9937 246.415 29.2024 245.737 30.2274C245.058 31.2524 244.081 32.0441 242.938 32.4954L248.336 40.7712H243.746L239.073 33.2447ZM234.893 30.0058H238.852C241.177 30.0058 242.727 28.7053 242.727 26.7669C242.727 24.8284 241.288 23.5279 239.129 23.5279H234.885L234.893 30.0058ZM270.35 30.5324C270.35 36.8441 266.421 41.0513 260.248 41.0513C253.909 41.0513 249.701 36.8441 249.701 30.5324C249.701 24.2206 253.853 20.0134 260.248 20.0134C262.855 19.9056 265.419 20.708 267.499 22.2831L264.926 24.7189C263.63 23.6548 261.975 23.1294 260.302 23.2514C256.373 23.2514 253.742 26.1581 253.742 30.5315C253.742 34.9048 256.343 37.8115 260.275 37.8115C261.02 37.8575 261.765 37.7554 262.47 37.5111C263.174 37.2668 263.823 36.8853 264.379 36.3885C264.936 35.8917 265.388 35.2895 265.709 34.6169C266.031 33.9443 266.216 33.2145 266.254 32.4699H260.967V29.2273H270.295C270.319 29.669 270.347 30.0852 270.347 30.5278L270.35 30.5324ZM289.034 20.2908L281.726 33.2192V40.7748H277.822V33.2137L270.486 20.2854H274.666L279.786 29.753L284.879 20.2854L289.034 20.2908ZM73.1443 62.729V64.7368H62.9704V47.8212H65.4171V62.729H73.1443ZM74.1053 58.6377C74.0982 57.3771 74.4655 56.1428 75.1604 55.0911C75.8554 54.0394 76.8469 53.2177 78.0093 52.7299C79.1716 52.2421 80.4527 52.1102 81.69 52.351C82.9274 52.5918 84.0655 53.1944 84.9601 54.0826C85.8547 54.9706 86.4656 56.1042 86.7155 57.3398C86.9654 58.5753 86.8429 59.8573 86.3637 61.0232C85.8844 62.1892 85.0699 63.1866 84.0234 63.8893C82.9768 64.5919 81.7452 64.9682 80.4845 64.9704C79.637 65.0233 78.7878 64.8962 77.9929 64.5972C77.1979 64.2984 76.4754 63.8345 75.8727 63.2361C75.2701 62.6377 74.801 61.9185 74.4963 61.1258C74.1917 60.333 74.0585 59.4856 74.1053 58.6377ZM84.418 58.6377C84.418 56.054 82.841 54.3155 80.4855 54.3155C78.1127 54.3155 76.5302 56.054 76.5302 58.6377C76.5302 61.2213 78.1091 62.959 80.4855 62.959C82.841 62.9581 84.418 61.2204 84.418 58.6377ZM88.8095 58.6377C88.7638 57.7879 88.8987 56.9383 89.2052 56.1445C89.5116 55.3507 89.9828 54.6308 90.5877 54.0323C91.1926 53.4338 91.9174 52.9703 92.7144 52.6722C93.5114 52.3741 94.3625 52.2484 95.2116 52.3031C96.6846 52.2835 98.1203 52.7663 99.282 53.6721L97.9551 55.2728C97.1978 54.6285 96.2293 54.2864 95.2354 54.3118C92.8333 54.3118 91.2335 56.0504 91.2335 58.634C91.2335 61.2177 92.8333 62.9553 95.2573 62.9553C95.8241 62.977 96.3892 62.8804 96.9165 62.6716C97.4438 62.4628 97.9219 62.1463 98.32 61.7424L99.6689 63.3195C98.4316 64.4362 96.808 65.027 95.1424 64.9668C94.2978 65.0168 93.4523 64.8874 92.6615 64.587C91.8706 64.2867 91.1523 63.8221 90.5539 63.2241C89.9555 62.6261 89.4906 61.9081 89.1898 61.1174C88.889 60.3267 88.7591 59.4813 88.8086 58.6368L88.8095 58.6377ZM111.534 57.0607V64.7413H109.27L109.225 62.593C108.806 63.3241 108.2 63.9301 107.468 64.3481C106.737 64.7661 105.907 64.9809 105.064 64.9704C102.618 64.9704 100.947 63.5102 100.947 61.3108C100.947 59.0292 102.984 57.5161 106.046 57.5161C107.107 57.521 108.164 57.636 109.201 57.8592V57.3116C109.227 56.8768 109.157 56.4417 108.997 56.0366C108.837 55.6315 108.591 55.2661 108.276 54.9657C107.96 54.6655 107.583 54.4375 107.171 54.2978C106.758 54.158 106.32 54.1099 105.887 54.1567C105.312 54.1347 104.738 54.2284 104.2 54.4322C103.662 54.636 103.171 54.9457 102.755 55.3431L101.732 53.9504C103.039 52.8138 104.734 52.2254 106.464 52.3077C109.501 52.3031 111.536 54.2014 111.536 57.0597L111.534 57.0607ZM109.201 59.46C108.262 59.256 107.305 59.1489 106.344 59.1405C104.562 59.1405 103.395 59.9865 103.395 61.2396C103.395 62.4753 104.241 63.2738 105.727 63.2738C106.207 63.2558 106.679 63.1422 107.115 62.9399C107.55 62.7376 107.942 62.4505 108.265 62.0954C108.589 61.7403 108.838 61.3242 109 60.8715C109.16 60.4189 109.23 59.9387 109.203 59.459L109.201 59.46ZM114.895 46.9077H117.228V64.7413H114.895V46.9077ZM125.987 56.232C125.987 51.0419 129.486 47.5885 134.722 47.5885C135.942 47.5449 137.157 47.7679 138.282 48.242C139.407 48.7162 140.416 49.43 141.236 50.3337L139.706 51.8851C139.114 51.1549 138.364 50.5691 137.513 50.1727C136.66 49.7762 135.73 49.5794 134.789 49.5972C131.018 49.5972 128.525 52.2511 128.525 56.2283C128.525 60.2521 131.04 62.9508 134.767 62.9508C135.824 62.978 136.87 62.7311 137.804 62.2343C138.738 61.7373 139.526 61.0073 140.094 60.1152L141.763 61.6238C140.945 62.7008 139.881 63.5661 138.66 64.1469C137.439 64.7278 136.096 65.0074 134.745 64.9622C129.509 64.9704 125.987 61.4723 125.987 56.232ZM154.98 52.5276V64.7413H152.74L152.693 62.9809C152.251 63.6311 151.648 64.156 150.943 64.5046C150.238 64.8532 149.455 65.0137 148.67 64.9704C148.035 65.0095 147.399 64.9133 146.804 64.688C146.21 64.4629 145.67 64.1139 145.22 63.6643C144.771 63.2146 144.421 62.6745 144.196 62.0798C143.971 61.4852 143.875 60.8493 143.914 60.2147V52.5313H146.246V59.825C146.26 60.6646 146.603 61.465 147.202 62.0537C147.801 62.6425 148.608 62.9724 149.447 62.9724C150.287 62.9724 151.093 62.6425 151.691 62.0537C152.29 61.465 152.634 60.6646 152.648 59.825V52.5313L154.98 52.5276ZM165.384 52.2995L165.225 54.4478C162.458 54.4478 160.766 55.8167 160.766 57.9003V64.7368H158.434V52.5313H160.673L160.718 54.362C161.635 53.0122 163.258 52.3031 165.384 52.3031V52.2995ZM174.256 52.2995L174.096 54.4478C171.329 54.4478 169.636 55.8167 169.636 57.9003V64.7368H167.305V52.5313H169.546L169.591 54.362C170.506 53.0122 172.129 52.3031 174.256 52.3031V52.2995ZM186.534 59.4782H177.225C177.453 61.6968 178.618 63.1141 180.745 63.1141C181.428 63.1142 182.1 62.9525 182.709 62.6424C183.317 62.3323 183.842 61.8825 184.243 61.3299L186.027 62.2909C185.445 63.1415 184.658 63.8322 183.739 64.2997C182.82 64.7672 181.798 64.9965 180.768 64.9668C177.178 64.9668 174.755 62.4506 174.755 58.6788C174.755 54.8603 177.109 52.2995 180.677 52.2995C184.22 52.2995 186.576 54.769 186.576 58.4725C186.586 58.8095 186.572 59.1468 186.534 59.4819V59.4782ZM177.225 57.8784H184.175C183.969 55.5466 182.689 54.1521 180.677 54.1521C178.666 54.1521 177.435 55.5731 177.229 57.882L177.225 57.8784ZM200.66 57.057V64.7377H198.328V57.4695C198.268 56.613 197.886 55.811 197.258 55.2254C196.63 54.6397 195.803 54.314 194.945 54.314C194.086 54.314 193.26 54.6397 192.632 55.2254C192.004 55.811 191.622 56.613 191.561 57.4695V64.7413H189.229V52.5313H191.47L191.517 54.3383C191.987 53.6694 192.62 53.1315 193.356 52.7755C194.091 52.4196 194.906 52.2573 195.722 52.304C198.675 52.3031 200.661 54.2014 200.661 57.0597L200.66 57.057ZM203.222 58.634C203.176 57.7843 203.311 56.9346 203.618 56.1408C203.924 55.347 204.396 54.6271 205.001 54.0286C205.605 53.4301 206.33 52.9666 207.127 52.6685C207.924 52.3705 208.775 52.2447 209.624 52.2995C211.097 52.2799 212.533 52.7626 213.694 53.6684L212.367 55.2692C211.61 54.6248 210.641 54.2825 209.646 54.3082C207.244 54.3082 205.644 56.0467 205.644 58.6304C205.644 61.214 207.244 62.9517 209.668 62.9517C210.235 62.9735 210.801 62.8769 211.328 62.6681C211.856 62.4592 212.334 62.1427 212.733 61.7388L214.081 63.3158C212.844 64.4326 211.22 65.0235 209.554 64.9631C208.711 65.0123 207.865 64.8823 207.076 64.5819C206.286 64.2814 205.568 63.817 204.971 63.2195C204.374 62.6219 203.909 61.9047 203.608 61.1148C203.308 60.325 203.177 59.4804 203.227 58.6368L203.222 58.634ZM216.074 69.6768L216.325 67.7786C216.639 67.9239 216.983 67.9949 217.329 67.9857C218.357 67.9857 218.77 67.3213 219.272 66.3613L220.118 64.536L214.768 52.5313H217.329L221.33 61.998L225.148 52.5313H227.709L221.536 66.6615C220.69 68.6958 219.802 69.999 217.717 69.999C217.154 70.0118 216.596 69.9028 216.078 69.6796L216.074 69.6768ZM237.823 49.8336V55.5932H244.522V57.6009H237.823V64.735H235.377V47.8212H245.459V49.829L237.823 49.8336ZM258.745 52.5313V64.7413H256.504L256.457 62.9809C256.016 63.6317 255.413 64.1569 254.708 64.5056C254.003 64.8542 253.219 65.0144 252.434 64.9704C251.799 65.0095 251.163 64.9133 250.569 64.688C249.974 64.4629 249.434 64.1139 248.985 63.6643C248.535 63.2146 248.186 62.6745 247.961 62.0797C247.735 61.4851 247.64 60.8493 247.679 60.2147V52.5313H250.011V59.825C250.025 60.6646 250.368 61.465 250.967 62.0537C251.566 62.6425 252.373 62.9724 253.212 62.9724C254.052 62.9724 254.858 62.6425 255.456 62.0537C256.055 61.465 256.399 60.6646 256.413 59.825V52.5313H258.745ZM273.63 57.0607V64.7413H271.299V57.4695C271.239 56.613 270.857 55.811 270.229 55.2254C269.601 54.6397 268.774 54.314 267.916 54.314C267.057 54.314 266.231 54.6397 265.603 55.2254C264.975 55.811 264.593 56.613 264.532 57.4695V64.7413H262.2V52.5313H264.441L264.488 54.3383C264.958 53.6694 265.591 53.1315 266.327 52.7755C267.062 52.4196 267.877 52.2573 268.693 52.304C271.641 52.3031 273.63 54.2023 273.63 57.0607ZM288.859 46.9077V64.7413H286.594L286.55 62.5008C286.102 63.29 285.444 63.939 284.649 64.3751C283.853 64.8113 282.952 65.0174 282.046 64.9704C278.685 64.9704 276.192 62.4543 276.192 58.6824C276.192 54.864 278.684 52.3031 282.046 52.3031C282.947 52.2525 283.844 52.4547 284.636 52.8871C285.427 53.3195 286.082 53.9647 286.527 54.7499V46.9068L288.859 46.9077ZM286.527 58.6377C286.527 56.054 284.926 54.3155 282.571 54.3155C280.193 54.3155 278.615 56.054 278.615 58.6605C278.615 61.2441 280.192 62.959 282.571 62.959C284.926 62.9581 286.527 61.2441 286.527 58.6377Z" fill="white"></path></svg>