<svg xmlns="http://www.w3.org/2000/svg" id="Layer_1" data-name="Layer 1" viewBox="0 0 127.64 25"><defs><style>.cls-1{fill:#1a171d;}.cls-2{fill:#1f668e;}.cls-3{fill:#24678d;}.cls-4{fill:#20678d;}.cls-5{fill:#009ad7;}.cls-6{fill:#195898;}.cls-7{fill:#1a5b97;}.cls-8{fill:none;}</style></defs><polygon class="cls-1" points="86.95 21.7 86.95 22.52 86.55 22.52 86.55 19.13 86.95 19.13 86.95 21.24 87.81 20.28 88.31 20.28 87.43 21.22 88.35 22.52 87.88 22.52 87.16 21.47 86.95 21.7"></polygon><polygon class="cls-1" points="109.77 20.28 110.2 20.28 110.57 21.7 110.65 22.2 110.67 22.2 110.77 21.7 111.14 20.28 111.57 20.28 111.95 21.7 112.05 22.2 112.06 22.2 112.16 21.7 112.53 20.28 112.94 20.28 112.28 22.52 111.82 22.52 111.46 21.14 111.35 20.59 111.24 21.14 110.87 22.52 110.44 22.52 109.77 20.28"></polygon><path class="cls-1" d="M80.38,19.51a1,1,0,0,1,.68.2.71.71,0,0,1,.24.56.61.61,0,0,1-.15.43.81.81,0,0,1-.38.22A.68.68,0,0,1,81,21a.58.58,0,0,1,.19.16,1.64,1.64,0,0,1,.14.22,1.5,1.5,0,0,1,0,.3.85.85,0,0,1-.08.35.89.89,0,0,1-.21.26,1.29,1.29,0,0,1-.33.17,1.4,1.4,0,0,1-.41.06h-.83v-3Zm-.44,1.25h.56a.37.37,0,0,0,.18-.08l.13-.14a.46.46,0,0,0,.06-.23.37.37,0,0,0-.16-.33.7.7,0,0,0-.4-.1h-.37Zm0,1.41h.6a.61.61,0,0,0,.2-.09.47.47,0,0,0,.15-.17.57.57,0,0,0,0-.26.53.53,0,0,0-.06-.24.52.52,0,0,0-.17-.16.79.79,0,0,0-.23-.09,1,1,0,0,0-.25,0h-.29Z"></path><path class="cls-1" d="M81.89,20.48l.21-.11.19-.07a.67.67,0,0,1,.2,0h.22a1.71,1.71,0,0,1,.32,0,.82.82,0,0,1,.26.14.56.56,0,0,1,.16.25.89.89,0,0,1,.06.39v1.46h-.33l-.05-.24h0a.87.87,0,0,1-.31.22.94.94,0,0,1-.66,0,.61.61,0,0,1-.22-.13.43.43,0,0,1-.15-.2A.69.69,0,0,1,82,21.4a1.26,1.26,0,0,1,.71-.19h.41V21a.38.38,0,0,0-.12-.33.59.59,0,0,0-.32-.09,1.22,1.22,0,0,0-.27,0,1.09,1.09,0,0,0-.35.15Zm1.22,1h-.34a.89.89,0,0,0-.48.13.33.33,0,0,0-.14.29.48.48,0,0,0,0,.17l.08.11.12.05h.15a.84.84,0,0,0,.31-.08.87.87,0,0,0,.27-.23Z"></path><path class="cls-1" d="M84.5,22.52h-.4V20.28h.29l.06.31a1,1,0,0,1,.34-.26.91.91,0,0,1,.41-.09.69.69,0,0,1,.51.19.76.76,0,0,1,.19.54v1.55h-.4V21a.54.54,0,0,0-.11-.32.37.37,0,0,0-.31-.12.84.84,0,0,0-.61.3Z"></path><path class="cls-1" d="M89.72,20.48l.21-.11.19-.07a.67.67,0,0,1,.2,0h.22a1.71,1.71,0,0,1,.32,0,.82.82,0,0,1,.26.14.67.67,0,0,1,.16.25.89.89,0,0,1,.06.39v1.46H91V22.3h0a.87.87,0,0,1-.31.22.94.94,0,0,1-.66,0,.61.61,0,0,1-.22-.13.43.43,0,0,1-.15-.2.69.69,0,0,1,.21-.81,1.26,1.26,0,0,1,.71-.19H91V21a.38.38,0,0,0-.12-.33.59.59,0,0,0-.32-.09,1.22,1.22,0,0,0-.27,0,1.09,1.09,0,0,0-.35.15Zm1.22,1H90.6a.89.89,0,0,0-.48.13.33.33,0,0,0-.14.29.48.48,0,0,0,0,.17l.08.11.12.05h.15a.84.84,0,0,0,.31-.08.87.87,0,0,0,.27-.23Z"></path><path class="cls-1" d="M93.42,20.27h.4v2.25h-.31l-.09-.28h0a1.09,1.09,0,0,1-.29.23.86.86,0,0,1-.41.1.85.85,0,0,1-.55-.2.8.8,0,0,1-.21-.61V20.27h.4v1.44a1,1,0,0,0,0,.25.51.51,0,0,0,.09.16l.13.09h.18a.76.76,0,0,0,.33-.08,1.51,1.51,0,0,0,.28-.22Z"></path><path class="cls-1" d="M95.61,20.69l-.28-.1a1,1,0,0,0-.24,0,.56.56,0,0,0-.33.08.29.29,0,0,0-.1.23.21.21,0,0,0,.07.17.69.69,0,0,0,.3.14l.14.05a1,1,0,0,1,.46.24.54.54,0,0,1,.16.42.63.63,0,0,1-.21.49,1,1,0,0,1-.61.19h-.39a1.28,1.28,0,0,1-.33-.11l.1-.33a1,1,0,0,0,.28.11,1.71,1.71,0,0,0,.32,0,.71.71,0,0,0,.32-.07.28.28,0,0,0,.13-.26.22.22,0,0,0-.11-.22,1.36,1.36,0,0,0-.3-.13l-.14-.05a.92.92,0,0,1-.44-.25.54.54,0,0,1-.15-.38.66.66,0,0,1,.06-.27.65.65,0,0,1,.17-.2.9.9,0,0,1,.24-.12,1.61,1.61,0,0,1,.31,0,1.82,1.82,0,0,1,.33,0,1.17,1.17,0,0,1,.33.11Z"></path><path class="cls-1" d="M97.43,19.51l.6,1.7.14.39c0,.14.09.28.14.4h0l.28-.79.6-1.7h.44l-1.13,3h-.4l-1.11-3Z"></path><path class="cls-1" d="M101.56,21.44H100a.82.82,0,0,0,.2.58.69.69,0,0,0,.53.2,1.62,1.62,0,0,0,.61-.12l.09.3-.31.1a2.54,2.54,0,0,1-.39,0,2.13,2.13,0,0,1-.44-.07.88.88,0,0,1-.36-.21.9.9,0,0,1-.25-.36,1.54,1.54,0,0,1,0-1,1.31,1.31,0,0,1,.21-.36.94.94,0,0,1,.33-.23,1.13,1.13,0,0,1,.45-.09,1.21,1.21,0,0,1,.37.07,1.1,1.1,0,0,1,.28.2,1.23,1.23,0,0,1,.19.31,1.39,1.39,0,0,1,.06.4Zm-.41-.3a.88.88,0,0,0,0-.23.66.66,0,0,0-.09-.19l-.16-.13a.49.49,0,0,0-.24,0,.52.52,0,0,0-.41.16.81.81,0,0,0-.2.44Z"></path><path class="cls-1" d="M102,22.52V20.28h.3l.07.44a.61.61,0,0,1,.25-.34.68.68,0,0,1,.41-.14h.2l.14.05-.08.37-.12-.05H103a.69.69,0,0,0-.24.05.56.56,0,0,0-.2.14.7.7,0,0,0-.13.24.86.86,0,0,0,0,.32v1.16Z"></path><path class="cls-1" d="M103.69,20.48l.2-.11.19-.07a.67.67,0,0,1,.2,0h.22a1.82,1.82,0,0,1,.33,0,.94.94,0,0,1,.26.14.85.85,0,0,1,.17.25,1.32,1.32,0,0,1,.06.39v1.46H105V22.3h0a.84.84,0,0,1-.31.22,1,1,0,0,1-.38.07,1,1,0,0,1-.29-.05.71.71,0,0,1-.22-.13,1,1,0,0,1-.15-.2,1.22,1.22,0,0,1,0-.27.63.63,0,0,1,.26-.54,1.39,1.39,0,0,1,.72-.19H105V21a.41.41,0,0,0-.12-.33.62.62,0,0,0-.32-.09,1.31,1.31,0,0,0-.28,0,1.19,1.19,0,0,0-.35.15Zm1.22,1h-.33a1,1,0,0,0-.5.13.39.39,0,0,0-.14.29.48.48,0,0,0,0,.17l.08.11.13.05h.14a.89.89,0,0,0,.32-.08,1,1,0,0,0,.27-.23Z"></path><path class="cls-1" d="M106.31,22.52h-.41V20.28h.32l.06.31a1.4,1.4,0,0,1,.33-.26,1,1,0,0,1,.41-.09.66.66,0,0,1,.7.73v1.55h-.4V21a.47.47,0,0,0-.1-.32.38.38,0,0,0-.32-.12.8.8,0,0,0-.59.3Z"></path><path class="cls-1" d="M109.46,20.59h-.62V21.9c0,.11,0,.19.08.22a.32.32,0,0,0,.2.06h.2l.19-.05.07.32-.23.07h-.3a.58.58,0,0,1-.46-.14.61.61,0,0,1-.16-.42V20.59h-.32v-.32h.35v-.71h.4v.71h.6Z"></path><path class="cls-1" d="M115.24,21.39a1.1,1.1,0,0,1-.09.51,1,1,0,0,1-.22.38,1.13,1.13,0,0,1-.34.23,1.16,1.16,0,0,1-.82,0,1,1,0,0,1-.55-.57,1.6,1.6,0,0,1,0-1,1,1,0,0,1,.56-.6,1.2,1.2,0,0,1,.42-.08,1.41,1.41,0,0,1,.41.07.83.83,0,0,1,.33.22,1,1,0,0,1,.22.35,1.4,1.4,0,0,1,.08.49m-.42,0a1.26,1.26,0,0,0-.06-.38.89.89,0,0,0-.14-.25.62.62,0,0,0-.21-.15H114a.48.48,0,0,0-.2.14.52.52,0,0,0-.14.25,1.34,1.34,0,0,0,0,.4,1.27,1.27,0,0,0,0,.39.72.72,0,0,0,.15.27.75.75,0,0,0,.2.15.72.72,0,0,0,.46,0,.52.52,0,0,0,.21-.14.85.85,0,0,0,.13-.25,1,1,0,0,0,.06-.42"></path><path class="cls-1" d="M115.72,22.52V20.28h.3l.07.44a.72.72,0,0,1,.25-.34.71.71,0,0,1,.42-.14h.2l.14.05-.08.37-.12-.05h-.16a.47.47,0,0,0-.24.05.6.6,0,0,0-.21.14.92.92,0,0,0-.13.24,1.71,1.71,0,0,0,0,.32v1.16Z"></path><path class="cls-1" d="M118.7,20.59h-.63V21.9c0,.11,0,.19.08.22a.36.36,0,0,0,.2.06h.2l.2-.05.06.32-.23.07h-.3a.71.71,0,0,1-.47-.14.6.6,0,0,1-.14-.42V20.59h-.32v-.32h.32v-.71h.4v.71h.63Z"></path><path class="cls-1" d="M120.68,20.27h.4v2.25h-.32v-.28h0a1.33,1.33,0,0,1-.3.23.86.86,0,0,1-.41.1.79.79,0,0,1-.57-.17.8.8,0,0,1-.21-.61V20.27h.4v1.44a1,1,0,0,0,0,.25,1.4,1.4,0,0,0,.1.16l.13.09h.17a.81.81,0,0,0,.34-.08,1.93,1.93,0,0,0,.28-.22Z"></path><path class="cls-1" d="M122.1,22.52h-.4V20.28H122l.06.31a1.23,1.23,0,0,1,.34-.26.9.9,0,0,1,.4-.09.72.72,0,0,1,.52.19.77.77,0,0,1,.18.54v1.55h-.4V21a.47.47,0,0,0-.1-.32.36.36,0,0,0-.31-.12.82.82,0,0,0-.6.3Z"></path><path class="cls-1" d="M124.08,21a1,1,0,0,1,.06-.33.92.92,0,0,1,.19-.25.69.69,0,0,1,.28-.15h1.53v.31H126l-.36-.06a1,1,0,0,1,.13.22,1.13,1.13,0,0,1,0,.26.72.72,0,0,1-.07.33.74.74,0,0,1-.17.25.55.55,0,0,1-.28.15,1,1,0,0,1-.34,0h-.25a.33.33,0,0,0-.15.11V22a.17.17,0,0,0,.07.15.6.6,0,0,0,.19,0h.57a.72.72,0,0,1,.54.17.56.56,0,0,1,.19.46.64.64,0,0,1-.08.33.78.78,0,0,1-.22.26,1,1,0,0,1-.35.15,1.82,1.82,0,0,1-.46.06,1.5,1.5,0,0,1-.75-.17.59.59,0,0,1-.27-.52.48.48,0,0,1,.1-.29.67.67,0,0,1,.3-.18.67.67,0,0,1-.15-.14.67.67,0,0,1,0-.2.4.4,0,0,1,.1-.26.51.51,0,0,1,.23-.17.67.67,0,0,1-.3-.25.84.84,0,0,1-.1-.42m.5,1.5a.34.34,0,0,0-.23.35c0,.28.21.42.64.42h.33a1,1,0,0,0,.21-.1l.12-.14v-.16a.25.25,0,0,0-.13-.26.78.78,0,0,0-.33-.07Zm.83-1.49a.5.5,0,0,0-.12-.37.5.5,0,0,0-.33-.12.5.5,0,0,0-.34.12.42.42,0,0,0-.12.35.41.41,0,0,0,.35.48.21.21,0,0,0,.11,0,.46.46,0,0,0,.33-.11.48.48,0,0,0,.12-.35"></path><path class="cls-2" d="M119.6,11.5c1-3.12,1.88-6.1,2.75-9.09.17-.59.5-.92,1-.91.73,0,1.52-.3,2.18.24.27.23.15.6.06.9a14.9,14.9,0,0,1-.93,3,18,18,0,0,0-1.08,3c-.7,2.28-1.72,4.44-2.3,6.77-.23.92-1,.87-1.75.88s-1.41.13-1.74-.83c-.5-1.45-1-2.9-1.58-4.32-1-2.57-1.59-5.28-2.74-7.78-.24-.54-.79-1.37.14-1.83a2.21,2.21,0,0,1,2.83.91c.81,2.4,1.7,4.78,2.35,7.24a14.88,14.88,0,0,0,.82,1.82"></path><path class="cls-2" d="M94.55,10V5.44c0-2.5,1.14-3.8,3.51-3.94,1.67-.1,3.37,0,5,0,1,0,1,.72,1,1.46s0,1.56-1,1.59-2.32,0-3.49,0S97.9,4.94,97.9,6.3v8.57c0,1.37-.1,1.43-1.81,1.44-1.4,0-1.58-.16-1.59-1.45V10.05Z"></path><path class="cls-2" d="M112,11.37c.25-.9.51-1.82.75-2.74.11-.38.17-.77.68-.76s.5.37.65.68c1.26,2.58.54,4.94-.72,7.24-.49.88-1.35.45-2,.51s-1.13-.62-1.46-1.19a6.91,6.91,0,0,1-.44-1.33c-.88-2.66-1.72-5.35-2.68-8-.36-1-.77-2-1.08-3-.25-.84,0-1.24.88-1.3,2.13-.13,2.15-.1,2.8,2.07.74,2.46,1.67,4.87,2.26,7.39a.38.38,0,0,0,.41.42"></path><path class="cls-2" d="M90.52,16.28c-1,.32-1.74-.28-2.35-1.1-1.24-1.69-2.54-3.31-3.84-4.95a2.11,2.11,0,0,1,.13-3l0,0a47.78,47.78,0,0,0,3.37-4.29,3.42,3.42,0,0,1,4-1.28c.77.28.56.69.15,1.19-1.44,1.7-2.81,3.52-4.24,5.2a1,1,0,0,0-.09,1.42l.09.08c1.48,1.77,2.94,3.56,4.4,5.35a1,1,0,0,1,.32,1c-.11.45-.49.42-.82.44H90.52"></path><path class="cls-3" d="M82.68,8.93v6c0,.87-.21,1.39-1.2,1.38-1.64,0-2.14-.21-2.16-1.31-.06-4-.07-8.13-.06-12.2,0-1,.62-1.32,2.08-1.33.94,0,1.36.35,1.34,1.38V9"></path><path class="cls-4" d="M101.15,7.82h.78c.84,0,1.39.25,1.38,1.33S103,10.71,102,10.68h-1.23c-1.53,0-1.73-.18-1.74-1.42s.18-1.43,1.69-1.44h.45"></path><polygon class="cls-1" points="22.15 21.23 22.15 21.51 21.42 21.51 21.42 23.51 21.08 23.51 21.08 21.51 20.37 21.51 20.37 21.23 22.15 21.23"></polygon><polygon class="cls-1" points="22.85 21.23 24.25 21.23 24.25 21.51 23.19 21.51 23.19 22.19 24.16 22.19 24.16 22.46 23.19 22.46 23.19 23.24 24.27 23.24 24.27 23.51 22.85 23.51 22.85 21.23"></polygon><polygon class="cls-1" points="25.06 21.23 26.47 21.23 26.47 21.51 25.41 21.51 25.41 22.19 26.37 22.19 26.37 22.46 25.41 22.46 25.41 23.24 26.48 23.24 26.48 23.51 25.06 23.51 25.06 21.23"></polygon><polygon class="cls-1" points="32.08 21.23 32.08 21.51 31.05 21.51 31.05 22.25 32 22.25 32 22.52 31.05 22.52 31.05 23.51 30.71 23.51 30.71 21.23 32.08 21.23"></polygon><polygon class="cls-1" points="42.04 21.23 43.45 21.23 43.45 21.51 42.38 21.51 42.38 22.19 43.35 22.19 43.35 22.46 42.38 22.46 42.38 23.24 43.46 23.24 43.46 23.51 42.04 23.51 42.04 21.23"></polygon><polygon class="cls-1" points="46.74 21.23 48.13 21.23 48.13 21.51 47.08 21.51 47.08 22.19 48.05 22.19 48.05 22.46 47.08 22.46 47.08 23.24 48.16 23.24 48.16 23.51 46.74 23.51 46.74 21.23"></polygon><polygon class="cls-1" points="48.95 21.23 49.29 21.23 49.29 23.23 50.29 23.23 50.29 23.51 48.95 23.51 48.95 21.23"></polygon><polygon class="cls-1" points="59.53 21.23 60.92 21.23 60.92 21.51 59.87 21.51 59.87 22.19 60.84 22.19 60.84 22.46 59.87 22.46 59.87 23.24 60.95 23.24 60.95 23.51 59.53 23.51 59.53 21.23"></polygon><polygon class="cls-1" points="66.12 21.23 66.12 21.51 65.39 21.51 65.39 23.51 65.05 23.51 65.05 21.51 64.34 21.51 64.34 21.23 66.12 21.23"></polygon><path class="cls-5" d="M56.42,5.48c-1,1.28-2,.33-3,.13L52.9,5.4c-.93-.33-1-.33-1.06.57-.06.46-.43.54-.73.68-1.32.6-1.33.59-1.33-.85,0-1.24,0-1.27-1.22-1.52s-2.44-.43-3.67-.66c-.46-.09-.49.16-.49.5V7.27c0,.46-.09.66-.62.66-1.47,0-1.47,0-1.47-1.49V3.82c0-.31,0-.52-.44-.54C40.44,3.2,39,3.11,37.6,3c-.49,0-.68.11-.66.62V7.29c0,.5-.15.65-.65.64-1.64,0-1.31.18-1.34-1.29V3.72c0-.55-.12-.77-.72-.72-1.37.12-2.74.21-4.12.29-.45,0-.55.22-.54.61V7.27c0,.47-.1.66-.63.66-1.52,0-1.52,0-1.52-1.5V4c0-.32-.08-.42-.44-.37-1.52.19-3,.54-4.5.82-.35.06-.44.25-.44.57V7.31c0,.51-.18.62-.66.62C20,7.93,20,7.93,20,6.64c0-.47.15-1.12-.1-1.36s-.86.16-1.31.29a34.37,34.37,0,0,0-4.9,1.83,4.53,4.53,0,0,1-3.25.41A50.26,50.26,0,0,1,26.86,2.12,53,53,0,0,1,56.42,5.48"></path><path class="cls-6" d="M4.5,13.34a2.74,2.74,0,0,1,3.42-1.63c.26.09.21.25.21.41v4a3.08,3.08,0,0,1-2.79,2.47,4.07,4.07,0,0,1-3.2-.9A2.22,2.22,0,0,1,1.34,16V8.76c0-2.06,2.53-3.1,4.46-2.55A2.91,2.91,0,0,1,8.14,9.34c0,.33-.11.45-.44.42H7.16c-.73.07-1.31.09-1.23-1,0-.7-.63-.89-1.26-.9s-1.33.48-1.33,1v7c0,.58.65,1,1.39,1s1.17-.24,1.22-1,0-1.45,0-2.18c0-.32-.15-.37-.42-.36h-1"></path><path class="cls-6" d="M61.66,9.73h-.92c-.69.09-1.12,0-1.07-.89,0-.69-.56-1-1.21-1s-1.1.23-1.18.91a5.61,5.61,0,0,0,0,.82v5.78c0,1,.33,1.44,1.15,1.42,1,0,1.41-.45,1.32-1.33,0-.4.11-.54.52-.51s1,0,1.44,0a1.24,1.24,0,0,1,0,1.21c-.48,2.65-3.92,3-5.67,1.61a2.42,2.42,0,0,1-.78-1.9V8.72c0-1.47,1-2.38,2.79-2.62,2-.22,3.22.6,3.65,2.43a1.17,1.17,0,0,1,0,1.2"></path><path class="cls-6" d="M14.33,17.73a2.15,2.15,0,0,1-1.69.89c-1.47.05-2.18-.67-2.3-2.17-.15-2,0-4.1-.05-6.15,0-.47.16-.58.61-.59,1.54,0,1.54-.06,1.54,1.43v4.5c0,.52.06,1,.71,1.16s1.18-.19,1.18-1.07V10.4c0-.56.15-.71.72-.7,1.5,0,1.5,0,1.5,1.43v6.68c0,.61-.19.79-.77.72a3.93,3.93,0,0,0-.84,0c-.47.06-.67-.12-.6-.8"></path><path class="cls-6" d="M43.14,10.48a2.34,2.34,0,0,1,2.39-.81,1.87,1.87,0,0,1,1.62,1.79v6.6c0,.35-.12.45-.48.47-1.67.1-1.67.11-1.67-1.48V12.62c0-.86-.26-1.18-.9-1.2s-1,.29-1,1.21v5.18c0,.61-.19.74-.78.73-1.38,0-1.38,0-1.38-1.39V10.32c0-.5.15-.67.64-.61a3.93,3.93,0,0,0,.84,0c.48-.07.77.07.68.77"></path><path class="cls-6" d="M52.3,18.52c-1.81,0-2.49-.69-2.5-2.41V11.76c0-.45-.07-.72-.62-.65s-.45-.39-.45-.7-.15-.76.47-.7c.31,0,.68,0,.58-.43-.17-.84.44-1.07,1-1.32,1-.44,1-.43,1,.63a4.68,4.68,0,0,1,0,.53c-.06.45.11.68.59.59s.69.19.7.72-.15.78-.72.69-.58.11-.58.54V16c0,.42.13.76.63.77,1.12,0,.55.85.62,1.32.1.67-.5.33-.76.42"></path><path class="cls-7" d="M28.71,10.5a7.7,7.7,0,0,1,2-.86c.5-.08.8,0,.71.57a1.5,1.5,0,0,0,0,.3c.07.63,0,1-.87,1A1.65,1.65,0,0,0,28.76,13a1.34,1.34,0,0,0,0,.2v4.64c0,.54-.11.73-.71.72-1.77,0-1.45,0-1.46-1.44V10.46c0-.58.21-.76.75-.71a2.08,2.08,0,0,0,.61,0c.58-.08,1,.05.83.79"></path><path class="cls-6" d="M36.92,17.71a2.58,2.58,0,0,1-3.47.43,1.15,1.15,0,0,1-.54-.67A4.31,4.31,0,0,1,33,14.53a2.1,2.1,0,0,1,1.6-1.14A13.51,13.51,0,0,1,36,13.26c.27,0,.72.33.82-.16a1.42,1.42,0,0,0-.34-1.53.89.89,0,0,0-1.25.09c-.53.87-1.32.57-2,.64-.46,0-.49-.16-.41-.53.33-1.52,2.12-2.44,3.89-2.11a3,3,0,0,1,2.35,2.85c-.08,1.82,0,3.65,0,5.47,0,.4-.09.6-.54.55a4.71,4.71,0,0,0-.92,0c-.57.08-.82-.12-.65-.82m-.65-3c-.9.06-1.39.43-1.4,1.22s.31,1.1.94,1.11c.79,0,1.07-.36,1.07-1.44,0-.4.2-.93-.61-.89"></path><path class="cls-6" d="M22.55,17.67c-.55.45-.86.83-1.41.92-2.25.36-3.32-1.47-2.7-3.42.46-1.46.9-1.81,3.16-1.91.29,0,.75.31.84-.17s.18-1.15-.35-1.52a.9.9,0,0,0-1.26.09h0c-.52.9-1.33.55-2.06.63-.52,0-.48-.29-.37-.56a3.43,3.43,0,0,1,4.46-1.93,3.31,3.31,0,0,1,1.19.79,2.3,2.3,0,0,1,.55,1.68V18c0,.42-.14.58-.57.54a5.75,5.75,0,0,0-.83,0c-.5,0-1,0-.67-.86m-.58-3c-1,0-1.55.43-1.53,1.26s.37,1.06,1,1.07,1-.39,1-1.52c-.06-.31.22-.81-.5-.81"></path><path class="cls-6" d="M69.51,14.12v1.65A3,3,0,0,1,65,18.33,2.43,2.43,0,0,1,63.52,16V12.52A3,3,0,0,1,68,9.84a2.37,2.37,0,0,1,1.56,2.32v2Zm-2,0V12.26c0-.62-.48-.81-1-.82s-1,.19-1,.83v3.66c0,.65.49.86,1,.87s1-.22,1-.87v-1.8Z"></path><path class="cls-1" d="M6,21.2h.37a1.12,1.12,0,0,1,.31.1l-.09.26-.26-.09H6a1.06,1.06,0,0,0-.31.05.61.61,0,0,0-.26.15,1,1,0,0,0-.18.28,1.59,1.59,0,0,0-.06.43.93.93,0,0,0,.2.66.68.68,0,0,0,.57.23h.24l.2-.05v-.64H6v-.25h.76v1.1l-.33.1H6a1.38,1.38,0,0,1-.45-.08,1,1,0,0,1-.6-.59,1.43,1.43,0,0,1-.09-.5,1.81,1.81,0,0,1,.08-.51,1.12,1.12,0,0,1,.24-.37,1.23,1.23,0,0,1,.36-.23A1.43,1.43,0,0,1,6,21.18"></path><path class="cls-1" d="M7.56,21.23H7.9V22.6a.74.74,0,0,0,.14.52.57.57,0,0,0,.44.16.54.54,0,0,0,.44-.18.74.74,0,0,0,.14-.46V21.23H9.4v1.4a1,1,0,0,1-.25.69,1,1,0,0,1-.67.23,1,1,0,0,1-.68-.22.89.89,0,0,1-.24-.71Z"></path><path class="cls-1" d="M11,21.23h.3l.92,2.28h-.36l-.24-.63h-1l-.25.63H10Zm-.25,1.39h.77l-.16-.4c0-.1-.08-.2-.11-.3l-.1-.3h0l-.11.3-.12.3Z"></path><path class="cls-1" d="M12.87,21.23h.76a1.13,1.13,0,0,1,.32.05.59.59,0,0,1,.23.14.74.74,0,0,1,.14.22.62.62,0,0,1,0,.27,1,1,0,0,1,0,.24.54.54,0,0,1-.11.18l-.15.14-.18.09.61,1h-.38l-.55-.9h-.38v.9h-.32Zm.32,1.1h.28a.74.74,0,0,0,.21,0,.36.36,0,0,0,.17-.07l.12-.13a.31.31,0,0,0,0-.19.41.41,0,0,0-.12-.33.56.56,0,0,0-.36-.1h-.34Z"></path><path class="cls-1" d="M15.87,21.23h.31l.93,2.28h-.36l-.25-.63h-1l-.25.63h-.32Zm-.24,1.39h.77l-.16-.4c0-.1-.08-.2-.11-.3l-.11-.3h0c0,.1-.08.2-.11.3s-.08.19-.12.3Z"></path><path class="cls-1" d="M17.78,21.23h.29l1.06,1.45.12.16.1.16h0V21.23h.33v2.28h-.29l-1.06-1.42-.12-.18-.11-.19h0v1.79h-.33Z"></path><path class="cls-1" d="M27.94,21.2h.33a1,1,0,0,1,.31.1l-.08.27-.28-.1H28a.58.58,0,0,0-.34.09.3.3,0,0,0-.12.25.29.29,0,0,0,.09.22.61.61,0,0,0,.3.15l.23.07a.87.87,0,0,1,.45.27.58.58,0,0,1,.13.38.63.63,0,0,1-.06.27.55.55,0,0,1-.17.2.64.64,0,0,1-.26.13.86.86,0,0,1-.32,0,2.16,2.16,0,0,1-.36,0,1.23,1.23,0,0,1-.37-.12l.09-.27a1.15,1.15,0,0,0,.31.11.81.81,0,0,0,.31,0,.58.58,0,0,0,.34-.09.28.28,0,0,0,.14-.27v-.12l-.07-.11-.13-.09-.22-.09-.23-.07a.76.76,0,0,1-.39-.22.55.55,0,0,1-.14-.37.64.64,0,0,1,.15-.46,1,1,0,0,1,.59-.17"></path><path class="cls-1" d="M33.84,21.2a1.29,1.29,0,0,1,.43.07,1.15,1.15,0,0,1,.35.22,1.1,1.1,0,0,1,.23.37,1.81,1.81,0,0,1,.08.51,1.44,1.44,0,0,1-.09.51,1,1,0,0,1-.23.37.87.87,0,0,1-.35.22,1.32,1.32,0,0,1-.44.08,1.22,1.22,0,0,1-.43-.08.87.87,0,0,1-.35-.22,1,1,0,0,1-.23-.36,1.53,1.53,0,0,1-.08-.52,1.08,1.08,0,0,1,.09-.5.85.85,0,0,1,.23-.37,1.18,1.18,0,0,1,.35-.23,1.31,1.31,0,0,1,.44-.07m-.74,1.13a1.13,1.13,0,0,0,.06.41.78.78,0,0,0,.16.28.66.66,0,0,0,.23.17.93.93,0,0,0,.29,0,.63.63,0,0,0,.51-.22,1.25,1.25,0,0,0,.15-.28,1.43,1.43,0,0,0,0-.82,1,1,0,0,0-.16-.28.53.53,0,0,0-.23-.16,1,1,0,0,0-.29-.05.87.87,0,0,0-.28.05.66.66,0,0,0-.23.17.76.76,0,0,0-.15.28.93.93,0,0,0-.06.4"></path><path class="cls-1" d="M35.76,21.23h.75a1.13,1.13,0,0,1,.32.05.59.59,0,0,1,.23.14.44.44,0,0,1,.14.22.62.62,0,0,1,0,.27.49.49,0,0,1,0,.24.42.42,0,0,1-.11.18l-.15.14-.18.09.62,1H37l-.55-.9h-.37v.9h-.33Zm.33,1.1h.27a.74.74,0,0,0,.21,0,.33.33,0,0,0,.17-.07l.11-.13a.26.26,0,0,0,0-.19.39.39,0,0,0-.13-.33.56.56,0,0,0-.36-.1h-.32Z"></path><path class="cls-1" d="M40.06,21.23a1.43,1.43,0,0,1,.46.07.93.93,0,0,1,.36.21,1,1,0,0,1,.24.34,1.27,1.27,0,0,1,.09.47,1.22,1.22,0,0,1-.11.56,1,1,0,0,1-.28.37.84.84,0,0,1-.4.2,1.35,1.35,0,0,1-.49.06h-.62V21.23Zm-.42,2h.26a1,1,0,0,0,.34,0,.64.64,0,0,0,.3-.14.67.67,0,0,0,.22-.28,1,1,0,0,0,.08-.46,1,1,0,0,0-.06-.35.85.85,0,0,0-.17-.25.92.92,0,0,0-.27-.16,1,1,0,0,0-.35-.05h-.35Z"></path><path class="cls-1" d="M44.31,21.23l.48,1.29.12.3.11.3h0l.22-.6.49-1.29h.36l-.92,2.28h-.33l-.9-2.28Z"></path><path class="cls-1" d="M51.93,21.2a1.31,1.31,0,0,1,.44.07,1.11,1.11,0,0,1,.34.22,1,1,0,0,1,.23.37,1.7,1.7,0,0,1,0,1,.91.91,0,0,1-.24.37.77.77,0,0,1-.34.22,1.25,1.25,0,0,1-.88,0,.91.91,0,0,1-.57-.58,1.53,1.53,0,0,1-.08-.52,1.06,1.06,0,0,1,.66-1.1,1.31,1.31,0,0,1,.44-.07m-.73,1.15a1.84,1.84,0,0,0,0,.41,1,1,0,0,0,.16.28.91.91,0,0,0,.23.17,1,1,0,0,0,.29,0,.93.93,0,0,0,.29,0,.62.62,0,0,0,.22-.17.78.78,0,0,0,.16-.28,1.63,1.63,0,0,0,0-.82.78.78,0,0,0-.16-.28.67.67,0,0,0-.24-.16.87.87,0,0,0-.28-.05.93.93,0,0,0-.29.05.76.76,0,0,0-.23.17,1.51,1.51,0,0,0-.15.28,1.37,1.37,0,0,0,0,.4"></path><path class="cls-1" d="M53.86,21.23h.73a1.26,1.26,0,0,1,.33.05.75.75,0,0,1,.25.13.62.62,0,0,1,.17.22.72.72,0,0,1,.06.29.87.87,0,0,1-.06.32.49.49,0,0,1-.18.22,1,1,0,0,1-.27.13,1,1,0,0,1-.34,0H54.2v.89h-.34Zm.34,1.1h.46a.83.83,0,0,0,.21-.06l.13-.14a.38.38,0,0,0,0-.21.34.34,0,0,0,0-.2l-.12-.14-.17-.07H54.2Z"></path><path class="cls-1" d="M56.3,21.23h.44l.49,1.46a.23.23,0,0,0,.07.2l.06.2h0l.06-.19a.28.28,0,0,1,.07-.21L58,21.23h.44l.21,2.28H58.3l-.11-1.18v-.71h0a1.24,1.24,0,0,1-.11.36,3.58,3.58,0,0,1-.11.35l-.41,1.21h-.31l-.45-1.21L56.68,22a2,2,0,0,0-.1-.36h0v.71l-.08,1.21h-.4Z"></path><path class="cls-1" d="M61.74,21.23H62l1.06,1.45.11.16.1.16h0V21.23h.33v2.28h-.3l-1-1.42-.11-.18-.11-.19h0v1.79h-.34Z"></path><rect class="cls-8" width="127.64" height="25"></rect></svg>