<svg xmlns="http://www.w3.org/2000/svg" xmlns:xlink="http://www.w3.org/1999/xlink" id="Layer_1" x="0px" y="0px" viewBox="0 0 85.3 85.3" style="enable-background:new 0 0 85.3 85.3;" xml:space="preserve">
<style type="text/css">
	.houst0{fill:#37A8E0;}
</style>
<g>
	<path class="houst0" d="M22.7,53.9c-0.1,0-0.1,0-0.2,0c-1.9-0.1-2.1,0.5-2.1,2.2c0,1.8,0,3.6,0,5.4c0,1.2,0.4,1.6,1.6,1.6   c0.2,0,0.4,0,0.7,0c0,0.8,0,1.5,0,2.3c0,0.7,0,1.5,0,2.3c-0.3,0-0.6,0-0.9,0c-0.9,0-1.4,0.4-1.4,1.4c0,1.7,0,3.3,0,5   c0,0.1,0,0.3,0,0.5c-0.7,0-1.4,0-2.3,0c0-0.3,0-0.5,0-0.8c0-10.6,0-21.2,0-31.8c0-1.4-0.3-1.7-1.7-1.7c-1.1,0-2.2,0-3.5,0   c10.2-9.8,20.3-19.6,30.4-29.3c10.1,9.8,20.2,19.5,30.4,29.3c-1.3,0-2.5,0-3.6,0c-1.2,0-1.5,0.4-1.5,1.5c0,10.6,0,21.3,0,31.9   c0,0.3,0,0.6,0,0.9c-0.7,0-1.5,0-2.3,0c0-0.3,0-0.5,0-0.8c0-6,0-12,0-18.1c0-1.4-0.3-1.7-1.7-1.7c-5.8,0-11.6,0-17.3,0   c-1.3,0-1.6,0.3-1.6,1.7c0,6,0,12,0,18.1c0,0.3,0,0.6,0,0.9c-1.5,0-3,0-4.5,0c0-1.5,0-3,0-4.5c0.3,0,0.7,0,1,0   c0.7,0,1.2-0.5,1.2-1.2c0-2.3,0-4.5,0-6.8c0-0.8-0.5-1.2-1.2-1.2c-0.3,0-0.7,0-1,0c0-1.5,0-3,0-4.6c0.4,0,0.7,0,1,0   c0.7,0,1.2-0.4,1.2-1.2c0-2.3,0-4.6,0-6.9c0-0.7-0.5-1.1-1.1-1.1c-0.1,0-0.3,0-0.4,0c-5.8,0-11.7,0-17.5,0c-1.2,0-1.6,0.4-1.6,1.6   c0,1.7,0,3.4,0,5.1C22.8,53.7,22.8,53.8,22.7,53.9z M54.9,50.5c3,0,5.9,0,8.9,0c1,0,1.4-0.4,1.4-1.4c0-2.8,0-5.5,0-8.3   c0-0.2,0-0.4,0-0.5c-0.8,0-1.5,0-2.3,0c0,2.1,0,4.1,0,6.2c-0.1,0-0.1,0.1-0.2,0.1c-0.2-0.2-0.3-0.4-0.5-0.6   C57.1,40.8,52.1,35.7,47,30.6c-1.1-1.1-1.5-1.1-2.5,0c-2.4,2.4-4.9,4.9-7.3,7.3c-0.2,0.2-0.4,0.4-0.6,0.6c-3.2-3.2-6.3-6.3-9.4-9.4   c-0.6,0.5-1.1,1-1.7,1.5c0.2,0.2,0.3,0.3,0.5,0.5c3.2,3.2,6.3,6.4,9.5,9.5c0.9,0.9,1.4,0.9,2.2,0c2.5-2.5,5-5,7.5-7.5   c0.2-0.2,0.3-0.5,0.3-0.5C50.8,38,55.9,43.1,61,48.2c-2,0-4,0-6.1,0C54.9,49,54.9,49.7,54.9,50.5z M45.8,25.7   c2.8,2.8,5.6,5.6,8.3,8.3c0.5-0.5,1.1-1,1.6-1.5c-0.2-0.2-0.3-0.3-0.4-0.4c-2.8-2.8-5.6-5.6-8.5-8.5c-0.8-0.8-1.3-0.8-2.2,0   c-2.4,2.4-4.8,4.8-7.2,7.2c-0.2,0.2-0.3,0.3-0.4,0.4c0.5,0.6,1,1.1,1.5,1.7C40.9,30.5,43.3,28.2,45.8,25.7z M24.4,36.3   c2.7,2.7,5.3,5.3,7.9,7.9c0.5-0.4,1-0.9,1.5-1.3c-2.7-2.7-5.3-5.3-8-8C25.4,35.3,24.8,35.8,24.4,36.3z M57.4,37.3   c0.5-0.5,1.1-1,1.5-1.4c-0.7-0.7-1.4-1.4-2.1-2.2c-0.5,0.5-1,1-1.5,1.5C56.1,35.9,56.8,36.6,57.4,37.3z"></path>
	<path class="houst0" d="M41.1,53.9c-5.3,0-10.6,0-15.9,0c0-1.5,0-3,0-4.5c0.7,0,1.4,0,2.2,0c0,0.7,0,1.4,0,2.2c0.8,0,1.5,0,2.3,0   c0-0.7,0-1.4,0-2.2c0.8,0,1.5,0,2.3,0c0,0.7,0,1.4,0,2.2c0.8,0,1.5,0,2.3,0c0-0.7,0-1.4,0-2.2c0.8,0,1.5,0,2.3,0c0,0.7,0,1.4,0,2.2   c0.8,0,1.5,0,2.3,0c0-0.7,0-1.4,0-2.2c0.8,0,1.5,0,2.2,0C41.1,50.9,41.1,52.3,41.1,53.9z"></path>
	<path class="houst0" d="M36.6,56.3c0.8,0,1.5,0,2.2,0c0,1.5,0,2.9,0,4.4c-5.3,0-10.6,0-15.9,0c0-1.5,0-2.9,0-4.4c0.7,0,1.4,0,2.2,0   c0,0.7,0,1.4,0,2.2c0.8,0,1.5,0,2.4,0c0-0.7,0-1.4,0-2.2c0.8,0,1.5,0,2.2,0c0,0.7,0,1.5,0,2.2c0.8,0,1.5,0,2.3,0c0-0.7,0-1.4,0-2.2   c0.8,0,1.5,0,2.2,0c0,0.7,0,1.4,0,2.2c0.8,0,1.6,0,2.4,0C36.6,57.8,36.6,57,36.6,56.3z"></path>
	<path class="houst0" d="M64,60.7c-5.3,0-10.6,0-15.9,0c0-1.5,0-2.9,0-4.5c0.7,0,1.4,0,2.2,0c0,0.7,0,1.4,0,2.2c0.8,0,1.5,0,2.3,0   c0-0.7,0-1.4,0-2.2c0.8,0,1.5,0,2.3,0c0,0.7,0,1.4,0,2.2c0.8,0,1.5,0,2.3,0c0-0.7,0-1.4,0-2.2c0.8,0,1.5,0,2.3,0c0,0.7,0,1.4,0,2.2   c0.8,0,1.5,0,2.3,0c0-0.7,0-1.4,0-2.2c0.8,0,1.5,0,2.2,0C64,57.7,64,59.2,64,60.7z"></path>
	<path class="houst0" d="M25.1,67.6c0-1.5,0-3,0-4.4c0.7,0,1.4,0,2.2,0c0,0.7,0,1.4,0,2.2c0.8,0,1.5,0,2.3,0c0-0.7,0-1.4,0-2.2   c0.8,0,1.5,0,2.3,0c0,0.7,0,1.4,0,2.2c0.8,0,1.5,0,2.3,0c0-0.7,0-1.4,0-2.2c0.8,0,1.5,0,2.3,0c0,0.7,0,1.4,0,2.2c0.8,0,1.5,0,2.3,0   c0-0.7,0-1.4,0-2.2c0.8,0,1.5,0,2.2,0c0,1.4,0,2.9,0,4.4C35.8,67.6,30.5,67.6,25.1,67.6z"></path>
	<path class="houst0" d="M48.1,63.2c0.7,0,1.4,0,2.1,0c0,0.7,0,1.4,0,2.2c0.8,0,1.6,0,2.4,0c0-0.7,0-1.4,0-2.2c0.8,0,1.5,0,2.2,0   c0,0.7,0,1.4,0,2.2c0.8,0,1.6,0,2.4,0c0-0.7,0-1.4,0-2.2c0.7,0,1.4,0,2.2,0c0,0.7,0,1.4,0,2.2c0.8,0,1.5,0,2.4,0c0-0.7,0-1.4,0-2.2   c0.8,0,1.5,0,2.2,0c0,1.5,0,2.9,0,4.4c-5.3,0-10.6,0-15.9,0C48.1,66.1,48.1,64.7,48.1,63.2z"></path>
	<path class="houst0" d="M29.6,70c0,0.7,0,1.4,0,2.2c0.8,0,1.5,0,2.3,0c0-0.7,0-1.4,0-2.2c0.8,0,1.5,0,2.2,0c0,0.7,0,1.4,0,2.2   c0.8,0,1.5,0,2.3,0c0-0.7,0-1.4,0-2.2c0.8,0,1.5,0,2.2,0c0,1.4,0,2.9,0,4.4c-5.3,0-10.6,0-15.9,0c0-1.4,0-2.9,0-4.4   c0.7,0,1.4,0,2.2,0c0,0.7,0,1.4,0,2.2c0.8,0,1.6,0,2.4,0c0-0.7,0-1.4,0-2.2C28.2,70,28.8,70,29.6,70z"></path>
	<path class="houst0" d="M48.1,70c0.7,0,1.4,0,2.2,0c0,0.7,0,1.4,0,2.2c0.8,0,1.5,0,2.3,0c0-0.7,0-1.4,0-2.2c0.8,0,1.5,0,2.3,0   c0,0.7,0,1.4,0,2.2c0.8,0,1.5,0,2.3,0c0-0.7,0-1.4,0-2.2c0.8,0,1.5,0,2.3,0c0,0.7,0,1.4,0,2.2c0.8,0,1.5,0,2.3,0c0-0.7,0-1.5,0-2.2   c0.8,0,1.5,0,2.2,0c0,1.5,0,3,0,4.5c-5.3,0-10.6,0-15.9,0C48.1,73,48.1,71.5,48.1,70z"></path>
</g>
</svg>